# xmcd
#
# Track frame offsets:
#	150
#	17337
#	33383
#	51169
#	64755
#	78664
#	92884
#	102951
#	117171
#	126605
#	144691
#	155634
#	168559
#	188843
#	200448
#	214465
#	227167
#
# Disc length: 3196 seconds
#
# Revision: 1
# Processed by: cddbd v1.5PL3 Copyright (c) Steve Scherf et al.
# Submitted via: audiograbber 1.83.01
#
DISCID=fa0c7a11
DTITLE=Howling Wolf - The London Sessions
DYEAR=1989
DGENRE=Blues
TTITLE0=Rockin' Daddy
TTITLE1=I Ain't Superstitious
TTITLE2=Sittin' On Top of the World
TTITLE3=Worried About My Baby
TTITLE4=What a Woman!
TTITLE5=Poor Boy
TTITLE6=Built for Comfort
TTITLE7=Who's Been Talking?
TTITLE8=The Red Rooster (False Start..
TTITLE9=The Red Rooster
TTITLE10=Do the Do
TTITLE11=Highway 49
TTITLE12=Wang Dang Doodle
TTITLE13=Howlin' For My Baby
TTITLE14=Smokestack Lightnin'
TTITLE15=Back Door Man
TTITLE16=Killing Floor
EXTD=
EXTT0=
EXTT1=
EXTT2=
EXTT3=
EXTT4=
EXTT5=
EXTT6=
EXTT7=
EXTT8=
EXTT9=
EXTT10=
EXTT11=
EXTT12=
EXTT13=
EXTT14=
EXTT15=
EXTT16=
PLAYORDER=
